<svg width="65" height="79" viewBox="0 0 65 79" fill="none" xmlns="http://www.w3.org/2000/svg">
<path d="M62.9111 32.9418C62.9111 56.4377 32.7021 76.5778 32.7021 76.5778C32.7021 76.5778 2.49219 56.4377 2.49219 32.9418C2.49219 16.2568 16.0171 2.73181 32.7021 2.73181C49.3862 2.73181 62.9111 16.2568 62.9111 32.9418Z" fill="white" stroke="#7EAF00" stroke-width="3.48061" stroke-linecap="round" stroke-linejoin="round"/>
<path d="M43.4979 31.9348C43.4441 32.0868 43.387 32.2268 43.3279 32.3638C42.886 33.6779 42.4642 35.0588 42.0638 36.5638C41.7361 37.7988 41.5159 39.0428 41.4148 40.0428C41.2791 41.3658 41.6121 42.2148 41.3758 42.4208C41.1941 42.5778 39.9188 42.0898 39.4397 41.6288C39.0159 41.2228 38.6829 40.6598 38.5228 39.9377C37.9368 37.3008 38.9998 32.8118 39.7981 30.7368C40.0491 30.0408 40.3167 29.3428 40.5921 28.6488C40.9529 27.7039 41.1878 27.1138 41.7908 25.7518L41.7928 25.7498C42.4729 24.1688 43.159 22.6558 43.7781 21.2958C43.8221 21.2078 43.8221 21.1188 43.8221 21.0758C43.8221 20.9858 43.7781 20.9427 43.7327 20.9427C43.556 20.9427 43.2449 21.1638 43.2449 21.1638C38.5081 25.8148 31.511 36.8848 31.511 36.8848C31.2889 37.2388 31.1131 37.4158 30.846 37.4158C30.6238 37.4158 30.448 37.0618 30.448 37.0618C30.3587 32.4998 29.8279 21.7378 29.8279 21.7378C29.8279 21.5618 29.784 21.5178 29.74 21.5178C29.6522 21.5178 29.473 21.7378 29.473 21.7378C29.473 21.7378 25.9798 31.3938 23.0579 36.9738C21.8138 39.3048 19.9148 41.7828 18.4979 42.3339C15.886 43.5178 14.3128 42.8298 13.3401 41.9878C11.8641 40.7118 12.074 37.7428 13.4188 35.7708C13.5062 35.6438 13.6522 35.4148 13.597 35.3098C13.532 35.1858 12.8758 35.5009 12.74 35.5878C11.223 36.5508 10.6771 38.8778 11.2068 40.2788C11.2869 40.4918 11.3899 40.7657 11.2669 40.8868C11.1751 40.9788 10.931 40.8778 10.764 40.7559C10.1639 40.3228 9.58379 39.1058 9.75078 37.7698C10.1248 34.7668 12.91 32.3628 15.5379 31.1808C16.157 30.9019 16.9271 30.6378 17.6321 30.6498C18.0799 30.6558 18.6448 30.8588 18.657 30.9637C18.6829 31.1708 18.2508 31.9329 18.1297 32.5558C17.5911 35.3538 17.5682 39.0748 15.8489 40.6088C15.785 40.6648 15.5521 40.7998 15.5521 40.8668C15.5521 40.9608 15.9207 41.2128 16.3797 41.2128C17.5701 41.2128 18.8411 40.0858 19.722 38.9508C19.7298 38.9388 19.7391 38.9279 19.7479 38.9158C19.7981 38.8499 19.8489 38.7838 19.8968 38.7178C20.6561 37.5999 21.1751 36.7769 21.6399 35.9148C22.1351 34.9448 22.6609 33.8008 23.202 32.5748C23.948 30.8308 24.5589 29.3928 25.1497 28.0059C25.7918 26.4778 26.4178 24.9858 26.993 23.6877C27.702 22.0488 28.8538 19.3488 28.8538 17.8868C28.8538 15.9818 28.056 15.4069 28.056 15.0518C28.056 14.6978 28.8978 14.6088 29.8719 14.6088C30.7581 14.6088 31.6878 14.6978 32.7947 14.6978C32.972 14.6978 33.5921 14.7867 33.68 15.9818C33.68 15.9818 34.3011 26.0798 34.5657 28.4258C34.5657 28.4258 34.5657 28.7808 34.7869 28.7808C34.8758 28.7808 34.9642 28.7808 35.098 28.6469C35.1868 28.5148 42.139 18.8158 45.5047 15.4069C46.0809 14.8308 46.6561 14.6978 46.6561 14.6978C47.5857 14.6528 48.3392 14.6528 48.9148 14.6528C50.3758 14.6528 51.0398 14.6978 51.0398 15.0518C51.0398 15.2299 50.907 15.3618 50.907 15.3618C50.907 15.3618 49.7562 16.6908 49.0481 18.4618C47.7029 21.7648 45.3777 26.8138 43.4979 31.9348Z" fill="#7EAF00"/>
</svg>
