<svg xmlns="http://www.w3.org/2000/svg" width="100.75" height="100.75" viewBox="0 0 100.75 100.75">
  <path id="tg" d="M50.375,8A50.375,50.375,0,1,0,100.75,58.375,50.366,50.366,0,0,0,50.375,8ZM75.116,42.511,66.848,81.47c-.609,2.763-2.255,3.433-4.55,2.133L49.7,74.32l-6.073,5.85a3.179,3.179,0,0,1-2.539,1.239l.894-12.817L65.325,47.508c1.016-.894-.223-1.4-1.564-.508L34.917,65.159,22.486,61.28c-2.7-.853-2.763-2.7.569-4L71.622,38.55C73.877,37.737,75.847,39.1,75.116,42.511Z" transform="translate(0 -8)" fill="#7eaf00"/>
</svg>
