<svg xmlns="http://www.w3.org/2000/svg" width="104" height="104" viewBox="0 0 104 104">
  <path id="vk" d="M52,0a52,52,0,1,0,52,52A52,52,0,0,0,52,0ZM79.7,69.652H73.1a4.755,4.755,0,0,1-3.721-1.787c-1.979-2.484-5.877-6.89-9.97-8.782a1.557,1.557,0,0,0-2.217,1.407v6.526a2.635,2.635,0,0,1-2.636,2.636H51.505c-3.968,0-12.513-2.415-19.321-12.334a67.3,67.3,0,0,1-9.9-20.308A2.092,2.092,0,0,1,24.3,34.35h6.675a3.093,3.093,0,0,1,2.966,2.206c1.241,4.152,4.456,13.108,10.139,17.567a1.176,1.176,0,0,0,1.9-.922V42.747A8.989,8.989,0,0,0,43.7,37a1.6,1.6,0,0,1,1.208-2.65H55.194a2,2,0,0,1,2,2V50.429a1.111,1.111,0,0,0,1.754.905,21.034,21.034,0,0,0,5-5.564,92.638,92.638,0,0,0,5.3-9.862,2.733,2.733,0,0,1,2.469-1.56H79a1.785,1.785,0,0,1,1.6,2.58c-1.837,3.685-5.415,10.444-8.782,14.41a2.819,2.819,0,0,0,.33,3.969,49.854,49.854,0,0,1,9.315,11.117A2.093,2.093,0,0,1,79.7,69.652Z" fill="#FFFFFF"/>
</svg>
