<svg xmlns="http://www.w3.org/2000/svg" xmlns:xlink="http://www.w3.org/1999/xlink" width="499.734" height="168.842" viewBox="0 0 499.734 168.842">
  <defs>
    <clipPath id="clip-path">
      <rect id="Прямоугольник_16" data-name="Прямоугольник 16" width="499.734" height="168.842" transform="translate(3186.149 580.663)" fill="none"/>
    </clipPath>
  </defs>
  <g id="banner_blk_bg_4" transform="translate(-3186.149 -580.663)" opacity="0.15">
    <g id="Сгруппировать_32" data-name="Сгруппировать 32" clip-path="url(#clip-path)">
      <g id="Сгруппировать_31" data-name="Сгруппировать 31">
        <path id="Контур_100" data-name="Контур 100" d="M3674.412,617.728a115.549,115.549,0,0,0-105.037-67.785,57.807,57.807,0,0,1,47.47-33.258c-1.632-.138-3.283-.213-4.951-.213a57.776,57.776,0,0,0-52.618,33.9h0a115.6,115.6,0,0,1,94.945,66.537c-.841-.01-1.68-.028-2.523-.028q-11.088,0-21.918,1.026a115.71,115.71,0,0,0-83.654-65.93,57.807,57.807,0,0,1,48.366-35.287c-1.632-.138-3.282-.213-4.951-.213a57.774,57.774,0,0,0-52.717,34.135,116.871,116.871,0,0,0-12.148-.663,57.8,57.8,0,0,1,47.466-33.259c-1.634-.138-3.283-.213-4.95-.213a57.778,57.778,0,0,0-52.618,33.9h0a115.6,115.6,0,0,1,96.514,70.076,231.406,231.406,0,0,0-171,134.58h39.6c33.25-75.6,105.809-129.994,191.806-137.295Z" fill="#fff"/>
        <path id="Контур_101" data-name="Контур 101" d="M3585.013,617.728a115.713,115.713,0,0,0-83.583-65.759,57.806,57.806,0,0,1,48.365-35.284c-1.633-.138-3.282-.213-4.951-.213a57.774,57.774,0,0,0-52.717,34.129,116.9,116.9,0,0,0-12.15-.658,57.807,57.807,0,0,1,47.468-33.258c-1.632-.138-3.282-.213-4.951-.213a57.773,57.773,0,0,0-52.617,33.9h0a115.6,115.6,0,0,1,94.939,66.525c-.489,0-.975-.016-1.465-.016q-11.609,0-22.93,1.131a115.7,115.7,0,0,0-83.693-66.036,57.809,57.809,0,0,1,48.366-35.286c-1.632-.138-3.283-.213-4.95-.213a57.77,57.77,0,0,0-52.716,34.135,116.64,116.64,0,0,0-12.15-.663,57.8,57.8,0,0,1,47.466-33.259c-1.632-.138-3.283-.213-4.95-.213a57.772,57.772,0,0,0-52.615,33.9h0a115.608,115.608,0,0,1,96.585,70.251,231.419,231.419,0,0,0-170.022,134.405h39.6c33.248-75.6,105.807-129.994,191.8-137.295Z" fill="#fff"/>
        <path id="Контур_102" data-name="Контур 102" d="M3495.615,617.728a115.713,115.713,0,0,0-83.582-65.759,57.807,57.807,0,0,1,48.363-35.284c-1.633-.138-3.282-.213-4.95-.213a57.771,57.771,0,0,0-52.715,34.129,116.918,116.918,0,0,0-12.151-.658,57.8,57.8,0,0,1,47.466-33.258c-1.632-.138-3.28-.213-4.948-.213a57.778,57.778,0,0,0-52.618,33.9h0a115.6,115.6,0,0,1,94.934,66.513c-.136,0-.271,0-.407,0-94.556,0-175.834,56.807-211.6,138.147H3303c33.249-75.6,105.813-129.994,191.806-137.295Z" fill="#fff"/>
      </g>
    </g>
  </g>
</svg>
