<svg xmlns="http://www.w3.org/2000/svg" xmlns:xlink="http://www.w3.org/1999/xlink" width="334.513" height="168.842" viewBox="0 0 334.513 168.842">
  <defs>
    <clipPath id="clip-path">
      <rect id="Прямоугольник_14" data-name="Прямоугольник 14" width="334.513" height="168.842" transform="translate(2676.685 580.663)" fill="none"/>
    </clipPath>
  </defs>
  <g id="banner_blk_bg_2" transform="translate(-2676.685 -580.663)" opacity="0.15">
    <g id="ssg1" clip-path="url(#clip-path)">
      <g id="Сгруппировать_25" data-name="Сгруппировать 25">
        <path id="Контур_94" data-name="Контур 94" d="M3174.043,678.359a115.553,115.553,0,0,0-105.037-67.785,57.808,57.808,0,0,1,47.469-33.258c-1.632-.138-3.283-.212-4.951-.212A57.775,57.775,0,0,0,3058.906,611h0a115.6,115.6,0,0,1,94.945,66.537c-.841-.009-1.68-.028-2.523-.028q-11.088,0-21.918,1.027a115.7,115.7,0,0,0-83.654-65.93,57.809,57.809,0,0,1,48.365-35.288c-1.632-.138-3.282-.212-4.951-.212a57.771,57.771,0,0,0-52.716,34.135,116.585,116.585,0,0,0-12.148-.664,57.8,57.8,0,0,1,47.466-33.259c-1.634-.138-3.283-.212-4.95-.212A57.777,57.777,0,0,0,3014.207,611h0a115.608,115.608,0,0,1,96.515,70.076,231.409,231.409,0,0,0-171,134.58h39.6c33.25-75.595,105.809-129.993,191.806-137.295Z" fill="#fff"/>
        <path id="Контур_95" data-name="Контур 95" d="M3084.643,678.359a115.708,115.708,0,0,0-83.582-65.758,57.807,57.807,0,0,1,48.365-35.285c-1.633-.138-3.282-.212-4.951-.212a57.772,57.772,0,0,0-52.717,34.129,116.652,116.652,0,0,0-12.15-.659,57.807,57.807,0,0,1,47.468-33.258c-1.632-.138-3.282-.212-4.951-.212A57.772,57.772,0,0,0,2969.508,611h0a115.6,115.6,0,0,1,94.94,66.526c-.489,0-.975-.017-1.465-.017q-11.609,0-22.93,1.131A115.7,115.7,0,0,0,2956.36,612.6a57.81,57.81,0,0,1,48.365-35.287c-1.632-.138-3.283-.212-4.95-.212a57.768,57.768,0,0,0-52.715,34.134,116.917,116.917,0,0,0-12.15-.663,57.8,57.8,0,0,1,47.466-33.259c-1.632-.138-3.283-.212-4.95-.212A57.77,57.77,0,0,0,2924.811,611h0a115.611,115.611,0,0,1,96.586,70.251,231.424,231.424,0,0,0-170.022,134.4h39.6c33.248-75.595,105.807-129.993,191.8-137.295Z" fill="#fff"/>
        <path id="Контур_96" data-name="Контур 96" d="M2995.246,678.359a115.714,115.714,0,0,0-83.582-65.758,57.808,57.808,0,0,1,48.363-35.285c-1.633-.138-3.282-.212-4.95-.212a57.77,57.77,0,0,0-52.715,34.129,116.671,116.671,0,0,0-12.151-.659,57.806,57.806,0,0,1,47.466-33.258c-1.632-.138-3.28-.212-4.948-.212A57.777,57.777,0,0,0,2880.111,611h0a115.6,115.6,0,0,1,94.934,66.514c-.136,0-.271-.005-.407-.005-94.556,0-175.834,56.807-211.606,138.147h39.6c33.249-75.595,105.813-129.993,191.806-137.295Z" fill="#fff"/>
      </g>
    </g>
  </g>
</svg>
