<svg xmlns="http://www.w3.org/2000/svg" xmlns:xlink="http://www.w3.org/1999/xlink" width="334.513" height="168.842" viewBox="0 0 334.513 168.842">
  <defs>
    <clipPath id="clip-path">
      <rect id="Прямоугольник_13" data-name="Прямоугольник 13" width="334.513" height="168.842" transform="translate(2308.189 580.663)" fill="none"/>
    </clipPath>
  </defs>
  <g id="banner_blk_bg_1" transform="translate(-2308.189 -580.663)" opacity="0.15">
    <g id="Сгруппировать_23" data-name="Сгруппировать 23" clip-path="url(#clip-path)">
      <g id="Сгруппировать_22" data-name="Сгруппировать 22">
        <path id="Контур_91" data-name="Контур 91" d="M2504.263,614.7a115.548,115.548,0,0,0-105.037-67.785,57.807,57.807,0,0,1,47.47-33.258c-1.632-.138-3.283-.213-4.951-.213a57.776,57.776,0,0,0-52.618,33.9h0a115.6,115.6,0,0,1,94.945,66.537c-.841-.009-1.679-.028-2.522-.028q-11.09,0-21.919,1.027a115.7,115.7,0,0,0-83.654-65.93,57.81,57.81,0,0,1,48.366-35.288c-1.632-.138-3.282-.212-4.951-.212a57.772,57.772,0,0,0-52.717,34.135,116.6,116.6,0,0,0-12.148-.664A57.8,57.8,0,0,1,2402,513.653c-1.634-.138-3.283-.213-4.95-.213a57.778,57.778,0,0,0-52.618,33.9h0a115.607,115.607,0,0,1,96.514,70.076,231.411,231.411,0,0,0-171,134.58h39.6c33.25-75.6,105.809-129.993,191.806-137.3Z" fill="#fff"/>
        <path id="Контур_92" data-name="Контур 92" d="M2414.864,614.7a115.712,115.712,0,0,0-83.583-65.758,57.805,57.805,0,0,1,48.365-35.285c-1.633-.138-3.282-.212-4.951-.212a57.772,57.772,0,0,0-52.717,34.129,116.63,116.63,0,0,0-12.15-.659,57.807,57.807,0,0,1,47.468-33.258c-1.632-.138-3.282-.213-4.951-.213a57.773,57.773,0,0,0-52.617,33.9h0a115.6,115.6,0,0,1,94.939,66.525c-.489,0-.975-.016-1.465-.016q-11.608,0-22.93,1.131a115.705,115.705,0,0,0-83.693-66.036,57.809,57.809,0,0,1,48.366-35.286c-1.632-.138-3.283-.212-4.95-.212a57.769,57.769,0,0,0-52.716,34.134,116.913,116.913,0,0,0-12.15-.663,57.8,57.8,0,0,1,47.466-33.259c-1.632-.138-3.283-.213-4.95-.213a57.772,57.772,0,0,0-52.615,33.9h0a115.608,115.608,0,0,1,96.585,70.251A231.424,231.424,0,0,0,2181.6,751.991h39.6C2254.45,676.4,2327.009,622,2413,614.7Z" fill="#fff"/>
        <path id="Контур_93" data-name="Контур 93" d="M2325.466,614.7a115.712,115.712,0,0,0-83.582-65.758,57.806,57.806,0,0,1,48.363-35.285c-1.633-.138-3.282-.212-4.95-.212a57.769,57.769,0,0,0-52.715,34.129,116.653,116.653,0,0,0-12.151-.659,57.8,57.8,0,0,1,47.466-33.258c-1.632-.138-3.28-.213-4.948-.213a57.778,57.778,0,0,0-52.618,33.9h0a115.6,115.6,0,0,1,94.934,66.514c-.136,0-.271-.005-.406-.005-94.557,0-175.834,56.807-211.606,138.147h39.6c33.248-75.6,105.812-129.993,191.8-137.3Z" fill="#fff"/>
      </g>
    </g>
  </g>
</svg>
