<svg xmlns="http://www.w3.org/2000/svg" xmlns:xlink="http://www.w3.org/1999/xlink" width="168.619" height="168.842" viewBox="0 0 168.619 168.842">
  <defs>
    <clipPath id="clip-path">
      <rect id="Прямоугольник_15" data-name="Прямоугольник 15" width="168.619" height="168.842" transform="translate(3042.443 580.663)" fill="none"/>
    </clipPath>
  </defs>
  <g id="banner_blk_bg_3" transform="translate(-3042.443 -580.663)" opacity="0.15">
    <g id="ssg3" clip-path="url(#clip-path)">
      <g id="Сгруппировать_28" data-name="Сгруппировать 28">
        <path id="Контур_97" data-name="Контур 97" d="M3173.906,678.359a115.552,115.552,0,0,0-105.037-67.785,57.809,57.809,0,0,1,47.47-33.258c-1.632-.138-3.283-.212-4.951-.212A57.775,57.775,0,0,0,3058.77,611h0a115.6,115.6,0,0,1,94.945,66.537c-.841-.009-1.68-.028-2.523-.028q-11.088,0-21.918,1.027a115.7,115.7,0,0,0-83.654-65.93,57.81,57.81,0,0,1,48.366-35.288c-1.632-.138-3.282-.212-4.951-.212a57.771,57.771,0,0,0-52.717,34.135,116.592,116.592,0,0,0-12.148-.664,57.8,57.8,0,0,1,47.466-33.259c-1.634-.138-3.283-.212-4.95-.212A57.777,57.777,0,0,0,3014.07,611h0a115.607,115.607,0,0,1,96.514,70.076,231.411,231.411,0,0,0-171,134.58h39.6c33.25-75.595,105.809-129.993,191.806-137.295Z" fill="#fff"/>
        <path id="Контур_98" data-name="Контур 98" d="M3084.507,678.359a115.712,115.712,0,0,0-83.583-65.758,57.807,57.807,0,0,1,48.365-35.285c-1.633-.138-3.282-.212-4.951-.212a57.771,57.771,0,0,0-52.717,34.129,116.637,116.637,0,0,0-12.15-.659,57.809,57.809,0,0,1,47.468-33.258c-1.632-.138-3.282-.212-4.951-.212A57.772,57.772,0,0,0,2969.371,611h0a115.6,115.6,0,0,1,94.939,66.526c-.489,0-.975-.017-1.465-.017q-11.609,0-22.93,1.131a115.7,115.7,0,0,0-83.693-66.035,57.81,57.81,0,0,1,48.366-35.287c-1.632-.138-3.283-.212-4.95-.212a57.769,57.769,0,0,0-52.716,34.134,116.917,116.917,0,0,0-12.15-.663,57.8,57.8,0,0,1,47.466-33.259c-1.632-.138-3.283-.212-4.95-.212A57.77,57.77,0,0,0,2924.674,611h0a115.611,115.611,0,0,1,96.585,70.251,231.424,231.424,0,0,0-170.022,134.4h39.6c33.248-75.595,105.807-129.993,191.8-137.295Z" fill="#fff"/>
        <path id="Контур_99" data-name="Контур 99" d="M2995.109,678.359a115.712,115.712,0,0,0-83.582-65.758,57.808,57.808,0,0,1,48.363-35.285c-1.633-.138-3.282-.212-4.95-.212a57.77,57.77,0,0,0-52.715,34.129,116.656,116.656,0,0,0-12.151-.659,57.807,57.807,0,0,1,47.466-33.258c-1.632-.138-3.28-.212-4.948-.212A57.777,57.777,0,0,0,2879.974,611h0a115.6,115.6,0,0,1,94.934,66.514c-.136,0-.271-.005-.407-.005-94.556,0-175.834,56.807-211.6,138.147h39.6c33.248-75.595,105.812-129.993,191.8-137.295Z" fill="#fff"/>
      </g>
    </g>
  </g>
</svg>
