<svg xmlns="http://www.w3.org/2000/svg" width="335.592" height="392" viewBox="0 0 335.592 392">
  <g id="bg_vk_contur_1" transform="translate(-2067.162 -2596.768)">
    <path id="Контур_137" data-name="Контур 137" d="M2207.173,2658.983a107.633,107.633,0,0,1,88.388-61.819c-3.039-.256-6.113-.4-9.219-.4a107.588,107.588,0,0,0-97.976,63.007h.005a215.243,215.243,0,0,1,176.793,123.66q-2.347-.027-4.7-.027-20.645,0-40.808,1.907a215.4,215.4,0,0,0-155.769-122.562,107.627,107.627,0,0,1,90.056-65.589c-3.039-.257-6.112-.4-9.219-.4a107.582,107.582,0,0,0-98.152,63.435,217.861,217.861,0,0,0-22.627-1.219,107.621,107.621,0,0,1,88.382-61.821c-3.043-.256-6.113-.4-9.217-.4a107.592,107.592,0,0,0-97.976,63.007h0a215.24,215.24,0,0,1,179.725,130.261,429.213,429.213,0,0,0-217.7,108.687v90.045c69.592-113.311,190.337-191.924,330.168-203.776h5.424A215.18,215.18,0,0,0,2207.173,2658.983Z" fill="#4f6337"/>
    <path id="Контур_138" data-name="Контур 138" d="M2198.692,2783.423c-.912-.006-1.822-.015-2.736-.015q-21.608,0-42.681,2.1a215.8,215.8,0,0,0-86.113-96.324v27.7a215.27,215.27,0,0,1,51.376,73.472,427.857,427.857,0,0,0-51.376,12.65v30.915a428.011,428.011,0,0,1,165.664-48.935h3.463a215.4,215.4,0,0,0-155.631-122.242,107.619,107.619,0,0,1,90.054-65.586c-3.041-.257-6.111-.4-9.219-.4a107.537,107.537,0,0,0-94.331,55.795v16.009A215.613,215.613,0,0,1,2198.692,2783.423Z" transform="translate(3)" fill="#4f6337"/>
    <path id="Контур_139" data-name="Контур 139" d="M2087.479,2597.164c-3.039-.257-6.113-.4-9.217-.4a108.8,108.8,0,0,0-11.1.58v3.542A107.216,107.216,0,0,1,2087.479,2597.164Z" fill="#4f6337"/>
    <path id="Контур_140" data-name="Контур 140" d="M2129.1,2597.164c-3.039-.256-6.111-.4-9.219-.4a107.206,107.206,0,0,0-52.715,13.764v13.116A107.2,107.2,0,0,1,2129.1,2597.164Z" fill="#4f6337"/>
  </g>
</svg>
