<svg xmlns="http://www.w3.org/2000/svg" width="551.837" height="392" viewBox="0 0 551.837 392">
  <g id="bg_vk_contur_2" transform="translate(-3435.325 -2596.768)">
    <path id="Контур_141" data-name="Контур 141" d="M3936.065,2596.77c-6.4,0-12.729.285-18.991.816a220.862,220.862,0,0,1,70.088,17.769V2602.68A222.907,222.907,0,0,0,3936.065,2596.77Z" fill="#82a614" opacity="0.13"/>
    <g id="Сгруппировать_66" data-name="Сгруппировать 66" opacity="0.13">
      <path id="Контур_142" data-name="Контур 142" d="M3774.213,2988.768h75.956a443.49,443.49,0,0,1,136.993-173.461v-46.63A444.06,444.06,0,0,0,3774.213,2988.768Z" fill="#82a614"/>
      <path id="Контур_143" data-name="Контур 143" d="M3850.331,2596.768c-6.4,0-12.728.285-18.988.818a221.471,221.471,0,0,1,155.819,84.309v-38A221.113,221.113,0,0,0,3850.331,2596.768Z" fill="#82a614"/>
      <path id="Контур_144" data-name="Контур 144" d="M3764.6,2596.77c-6.4,0-12.732.285-18.984.816a221.682,221.682,0,0,1,185.26,134.277c-146.445,26.527-267.8,124.773-326.109,256.905h75.96a443.7,443.7,0,0,1,306.431-252.86v-10.573q-10.312.54-20.5,1.538A221.652,221.652,0,0,0,3764.6,2596.77Z" fill="#82a614"/>
      <path id="Контур_145" data-name="Контур 145" d="M3880.707,2726.341a221.665,221.665,0,0,0-201.839-129.573c-6.4,0-12.725.285-18.988.818a221.7,221.7,0,0,1,182.1,127.135c-.266,0-.53-.009-.8-.009-181.357,0-337.247,108.582-405.857,264.056h75.952c63.771-144.494,202.947-248.471,367.881-262.427Z" fill="#82a614"/>
      <path id="Контур_146" data-name="Контур 146" d="M3987.162,2988.768v-76.176a440.684,440.684,0,0,0-43.141,76.176Z" fill="#82a614"/>
    </g>
  </g>
</svg>
