<svg xmlns="http://www.w3.org/2000/svg" width="621.567" height="360.758" viewBox="0 0 621.567 360.758">
  <g id="connect_kontur_1" transform="translate(-2535.701 -3724.179)" opacity="0.25">
    <path id="Контур_153" data-name="Контур 153" d="M3064.246,3888.232s21.572-3.36,27.886-5.225a174.769,174.769,0,0,0-161.608-108.215c-5.048,0-10.037.225-14.975.646a174.854,174.854,0,0,1,148.7,112.794" fill="#fff"/>
    <path id="Контур_154" data-name="Контур 154" d="M2929.051,3888.232s21.172-4.611,27.651-5.786a174.767,174.767,0,0,0-161.372-107.654c-5.047,0-10.039.225-14.969.646a174.86,174.86,0,0,1,148.69,112.794" fill="#fff"/>
    <path id="Контур_155" data-name="Контур 155" d="M3127.327,3877.307h29.941a174.75,174.75,0,0,0-159.149-102.516c-5.044,0-10.034.225-14.967.647a174.835,174.835,0,0,1,144.175,101.869" fill="#fff"/>
    <path id="Контур_156" data-name="Контур 156" d="M2992.128,3877.307h29.942a174.748,174.748,0,0,0-159.146-102.516c-5.044,0-10.036.225-14.972.647a174.834,174.834,0,0,1,144.176,101.869" fill="#fff"/>
    <path id="Контур_157" data-name="Контур 157" d="M2856.933,3877.307h29.942a174.748,174.748,0,0,0-159.146-102.516c-5.043,0-10.034.225-14.972.647a174.835,174.835,0,0,1,144.176,101.869" fill="#fff"/>
    <path id="Контур_158" data-name="Контур 158" d="M2759.267,3780.9s-10.787-1.68-13.941-2.614a87.38,87.38,0,0,1,80.8-54.106c2.523,0,5.016.112,7.486.32a87.431,87.431,0,0,0-74.346,56.4" fill="#fff"/>
    <path id="Контур_159" data-name="Контур 159" d="M2826.862,3780.9s-10.586-2.3-13.824-2.893a87.381,87.381,0,0,1,80.687-53.827c2.521,0,5.017.112,7.485.32a87.433,87.433,0,0,0-74.348,56.4" fill="#fff"/>
    <path id="Контур_160" data-name="Контур 160" d="M2894.461,3780.9s-10.787-1.68-13.943-2.614a87.385,87.385,0,0,1,80.8-54.106c2.524,0,5.017.112,7.487.32a87.431,87.431,0,0,0-74.349,56.4" fill="#fff"/>
    <path id="Контур_161" data-name="Контур 161" d="M2962.059,3780.9s-10.586-2.3-13.827-2.893a87.387,87.387,0,0,1,80.688-53.827c2.524,0,5.019.112,7.487.32a87.433,87.433,0,0,0-74.348,56.4" fill="#fff"/>
    <path id="Контур_162" data-name="Контур 162" d="M2727.727,3775.438h-14.97a87.376,87.376,0,0,1,79.574-51.259c2.522,0,5.014.113,7.482.322a87.425,87.425,0,0,0-72.086,50.937" fill="#fff"/>
    <path id="Контур_163" data-name="Контур 163" d="M2795.325,3775.438h-14.968a87.366,87.366,0,0,1,79.569-51.259c2.521,0,5.017.113,7.485.322a87.42,87.42,0,0,0-72.086,50.937" fill="#fff"/>
    <path id="Контур_164" data-name="Контур 164" d="M2862.921,3775.438h-14.97a87.369,87.369,0,0,1,79.572-51.259c2.524,0,5.019.113,7.487.322a87.429,87.429,0,0,0-72.089,50.937" fill="#fff"/>
    <path id="Контур_165" data-name="Контур 165" d="M2930.522,3775.438h-14.973a87.376,87.376,0,0,1,79.574-51.259c2.521,0,5.014.113,7.485.322a87.42,87.42,0,0,0-72.086,50.937" fill="#fff"/>
    <path id="Контур_166" data-name="Контур 166" d="M2998.116,3775.438h-14.968a87.372,87.372,0,0,1,79.573-51.259c2.523,0,5.02.113,7.488.322a87.432,87.432,0,0,0-72.093,50.937" fill="#fff"/>
    <path id="Контур_167" data-name="Контур 167" d="M2802.907,4084.937h59.89c50.283-114.323,160.013-196.589,290.067-207.63-9.875-.838-19.858-1.288-29.943-1.288-143,0-265.918,85.908-320.014,208.918" fill="#fff"/>
    <path id="Контур_168" data-name="Контур 168" d="M2669.3,4084.937H2729.2c50.281-114.323,160.013-196.589,290.062-207.63-9.872-.838-19.85-1.288-29.946-1.288-142.995,0-265.911,85.908-320.008,208.918" fill="#fff"/>
    <path id="Контур_169" data-name="Контур 169" d="M2595.587,4084.937c50.282-114.323,160.02-196.589,290.068-207.63-9.874-.838-19.857-1.288-29.945-1.288-143,0-265.912,85.908-320.009,208.918Z" fill="#fff"/>
  </g>
</svg>
