<svg xmlns="http://www.w3.org/2000/svg" width="208.992" height="51.992" viewBox="0 0 208.992 51.992">
  <g id="logo_clear" transform="translate(-2923.467 -17.608)">
    <path id="Контур_89" data-name="Контур 89" d="M2995.38,31.977a5.148,5.148,0,0,0-3.1.572c-.57.377-.634.822-.887.822-.317,0-.317-1.141-2.787-1.141-8.172,0-16.28,11.147-16.28,19,0,2.154.823,4.75,3.167,4.75,2.915,0,6.525-3.738,8.363-5.954,0,0,.189,0,.189.317a16.669,16.669,0,0,0-.951,4.877,8.293,8.293,0,0,0,2.471,6.144.275.275,0,0,0,.19.064c.127,0,.317-.064.317-.444.254-4.5,2.787-11.022,2.787-11.022,2.471-6.08,7.537-17.607,7.537-17.735C2996.4,31.977,2995.76,31.977,2995.38,31.977Zm-8.48,10.388c-.948,2.154-5.384,9.5-7.98,9.5-.824,0-.95-1.014-.95-1.583,0-4.18,6.714-16.4,11.084-16.4a1.064,1.064,0,0,1,1.077.569C2990.13,34.954,2987.59,40.781,2986.9,42.365Zm59.159,4.622s-5.321,13.493-7.727,16.345c0,0-4.118,5.953-11.02,5.953-5.069,0-5.511-2.6-5.511-3.294,0-5.258,6.523-7.03,6.84-7.03.378,0,.506.124.506.315a.669.669,0,0,1-.063.254c-1.52,1.393-3.23,3.737-3.23,6.018,0,1.584,1.332,1.774,2.281,1.774,2.913,0,4.813-2.028,6.207-4.561a136.408,136.408,0,0,0,6.081-13.555.233.233,0,0,0-.189-.127c-4.624,6.336-8.109,7.032-9.565,7.032-1.71,0-2.6-1.205-2.6-2.978a8.57,8.57,0,0,1,.294-1.83c-2.611,2.722-6.8,4.933-10.358,4.933-3.612,0-5.574-1.962-5.574-5.574,0-7.094,7.471-19.065,15.9-19.065,1.646,0,3.674.38,3.674,2.726,0,3.1-2.978,6.079-6.082,6.9-.444,0-.569-.127-.569-.253a.415.415,0,0,1,.125-.317,10.243,10.243,0,0,0,3.1-6.713.582.582,0,0,0-.634-.633c-2.533,0-9.816,10.133-9.816,16.087,0,1.774.568,3.738,3.294,3.738,1.011,0,4.306-.506,8.234-6.27a1.024,1.024,0,0,1,.143-.156,89.96,89.96,0,0,1,5.8-12.957c.76-1.33,4.178-1.645,5.129-1.645,0,0,.318.062.318.315,0,.19-.823,1.9-1.205,2.724-1.519,2.977-6.207,14-6.207,15.582,0,.57.19,1.075,1.142,1.075s2.594-1.645,4.179-3.545c2.534-3.1,5.826-9.754,7.473-13.618a3.519,3.519,0,0,1,1.962-1.963,9.7,9.7,0,0,1,3.549-.57s.443,0,.443.253c.008.192-4.052,9.373-6.332,14.63Zm20.374-15.074c-2.722,0-5.129,1.9-6.84,3.737-.064.127-.129.191-.189.191-.126,0-.126-.317-.126-.317.7-1.52,1.519-3.294,1.519-3.294a.378.378,0,0,0,.064-.253c0-.191-.129-.191-.255-.191a8.917,8.917,0,0,0-3.482.572,4.141,4.141,0,0,0-1.584,1.077c-1.9,3.609-4.815,10.7-6.143,13.87,0,0-7.095,17.354-9.185,21.6a.483.483,0,0,0-.126.315c0,.128.062.38.442.38,2.027,0,3.991-.252,5.13-1.519a9.634,9.634,0,0,0,1.331-2.661c1.013-2.4,4.371-10.641,4.624-11.146,0,0,.124-.256.252-.256.064,0,.064.065.127.191,0,0,.57,1.962,3.674,1.962,8.613,0,13.935-12.666,13.935-19.572,0-4.5-2.661-4.686-3.171-4.686Zm-11.212,22.361c-1.392,0-1.961-1.4-1.961-2.473,0-1.33,2.026-6.459,3.1-8.613a23.556,23.556,0,0,1,2.28-4.117c1.394-1.9,3.61-4.052,4.876-4.052.824,0,1.015.885,1.015,1.455,0,4.119-5.451,17.8-9.311,17.8Zm28.773-22.785c-9.3,0-14.861,10.146-14.861,17.769,0,4.783,2.713,6.978,7.173,6.978,8.851,0,14.408-10.532,14.408-17.834,0-4.521-2.524-6.913-6.724-6.913Zm-7.56,22.937c-1.744,0-2.2-1.485-2.2-3.228,0-7.109,5.687-17.835,9.564-17.835.71,0,1.939.129,1.939,2.715-.007,4.781-4.787,18.348-9.307,18.348Zm56.025-20.516c0,.128,0,.257-.574.448s-3.008,1.471-3.008,2.3a10.066,10.066,0,0,1,.513,3.326c0,6.587-5.564,16.629-13.623,16.629-5.437,0-5.885-5.051-5.885-6.971,0-7.611,6.459-18.1,14.261-18.1.7,0,3.456.45,3.456,1.41,0,.192-.193.32-.576.32a1.737,1.737,0,0,0-.513-.066c-6.074,0-11.256,10.81-11.256,16.18,0,1.793.448,4.8,3.006,4.8,4.286,0,6.653-7.674,6.653-12.151,0-.448-.066-3.263-1.535-4.093a.48.48,0,0,1-.192-.384c0-1.279,3.9-4.031,7.8-4.031,1.344,0,1.464.064,1.464.383ZM3006.82,56.743c0,.189-.126.635-.38.635-.634,0-2.6-1.521-2.6-4.69a16.08,16.08,0,0,1,1.33-5.762c.165-.4.338-.812.514-1.234a36.8,36.8,0,0,1-6.512.357c-1.293,3.155-2.1,6.283-3.792,8.6-.949,1.268-3.039,1.584-4.749,1.584-.445,0-.507-.253-.507-.443a.673.673,0,0,1,.062-.253c1.168-2.542,2.745-6.312,4.456-10.4-1.473-.628.125-3.251,1.264-3.014,1.061-2.526,2.15-5.088,3.206-7.487a3.156,3.156,0,0,1,2.089-1.9,8.8,8.8,0,0,1,3.357-.633s.318.062.318.315a.48.48,0,0,1-.063.255c-.571,1.266-3.168,6.9-3.168,7.156l-1.169,2.944a58.371,58.371,0,0,0,6.4.087c1.58-3.729,3.225-7.5,3.868-8.6,1.2-2.153,3.041-2.408,5.574-2.472,0,0,.318,0,.318.191s-.824,1.9-1.2,2.786C3015.75,34.069,3007.71,50.471,3006.82,56.743ZM2971.8,42.38c-.077.216-.158.418-.244.612-.633,1.879-1.235,3.856-1.807,6.008a33.212,33.212,0,0,0-.93,4.976c-.192,1.892.282,3.109-.054,3.4-.261.223-2.084-.476-2.77-1.133a4.712,4.712,0,0,1-1.312-2.42c-.837-3.769.682-10.193,1.825-13.159.359-.995.741-1.994,1.135-2.987.515-1.352.853-2.194,1.716-4.142h0c.973-2.265,1.952-4.428,2.839-6.373a.673.673,0,0,0,.064-.314c0-.129-.064-.191-.129-.191a1.794,1.794,0,0,0-.7.317c-6.776,6.65-16.785,22.485-16.785,22.485-.316.505-.571.758-.949.758-.318,0-.57-.5-.57-.5-.128-6.525-.888-21.916-.888-21.916,0-.252-.062-.316-.126-.316-.126,0-.382.316-.382.316s-5,13.807-9.173,21.789c-1.782,3.336-4.5,6.879-6.524,7.667-3.735,1.694-5.985.709-7.377-.493-2.112-1.827-1.81-6.073.113-8.894.125-.183.333-.511.255-.66-.095-.176-1.031.273-1.226.4a6.132,6.132,0,0,0-2.193,6.71c.116.305.262.7.088.87-.134.131-.484-.014-.723-.186a4.865,4.865,0,0,1-1.448-4.272c.535-4.3,4.52-7.736,8.278-9.426a7.439,7.439,0,0,1,3-.758c.642.007,1.448.3,1.468.45.035.3-.584,1.385-.756,2.275-.771,4-.8,9.325-3.263,11.518-.089.082-.423.275-.423.37,0,.134.525.5,1.183.5,1.7,0,3.522-1.612,4.78-3.237a.477.477,0,0,0,.037-.05c.074-.094.145-.188.214-.282a45.741,45.741,0,0,0,2.493-4.007c.707-1.391,1.46-3.025,2.233-4.778,1.069-2.5,1.941-4.55,2.787-6.534.917-2.189,1.814-4.319,2.635-6.178,1.015-2.344,2.662-6.207,2.662-8.3,0-2.723-1.14-3.547-1.14-4.055s1.2-.632,2.6-.632c1.268,0,2.6.127,4.181.127.255,0,1.14.125,1.268,1.837,0,0,.886,14.44,1.266,17.8,0,0,0,.507.316.507a.524.524,0,0,0,.443-.191c.128-.19,10.071-14.061,14.885-18.937a3.8,3.8,0,0,1,1.647-1.013c1.329-.065,2.407-.065,3.232-.065,2.089,0,3.04.065,3.04.57a.7.7,0,0,1-.191.444,17.538,17.538,0,0,0-2.66,4.434C2977.81,27.833,2974.49,35.053,2971.8,42.38Zm140.461-24.468a11.684,11.684,0,0,0-6.814,1.5,14.7,14.7,0,0,0-3.076,2.716c-.178.188-.354.382-.525.581a37.045,37.045,0,0,0-4.04,6.859c-6.161.094-8.887-2.175-10.014-3.409-.159-.174-.361.4-.489.769-.357,1.036.092,3.906,3.325,4.952a11.876,11.876,0,0,0,6.107.258c-.253.585-.818,1.788-.835,1.831,0,0-3.593,8.56-5.666,13.776a14.494,14.494,0,0,0-1.014,4.624c0,2.85,2.28,3.928,4.622,3.928,9.121,0,16.022-11.079,17.29-18.805a6.6,6.6,0,0,0,.143-1.506c0-3.736-2.946-3.83-3.9-3.83-2.786,0-5.034,1.772-6.569,2.859-.127,0-.127-.129-.127-.191.118-.31.583-1.441.583-1.441.207-.474.59-1.169.943-2.142a42.739,42.739,0,0,0,6.53-2.493,14.65,14.65,0,0,0,6.163-5.375c1.741-3.1.861-5.173-2.639-5.461Zm-9.542,11.2c.047-.123,2.387-4.686,3.471-6.506a11.66,11.66,0,0,1,2.91-3.206,3.722,3.722,0,0,1,1.281-.537.8.8,0,0,1,.1-.017c.053-.009.1-.017.157-.023.083-.006.164-.012.244-.013h.078c1.988.036.4,5.36-2.96,7.8a12.777,12.777,0,0,1-5.28,2.5Zm2.506,5.39c.7,0,.952.633.952,1.2,0,3.04-6.507,18.755-10.876,18.755-1.331,0-1.521-.76-1.521-1.584,0-3.287,6.76-18.373,11.44-18.373Z" fill="#7eaf00"/>
    <path id="Контур_90" data-name="Контур 90" d="M3058.38,69.158l-.548-1.54h-2.578l-.562,1.54h-1.27l2.63-6.958h.978l2.629,6.958Zm-1.369-3.979-.458-1.43h-.031l-.449,1.4-.473,1.439h1.872Zm4.405-1.879v5.858h-1.208V62.2h4.2v1.1Zm8.866,1.08a1.978,1.978,0,0,1-.164.8,2.075,2.075,0,0,1-.465.67,2.347,2.347,0,0,1-.72.466,2.417,2.417,0,0,1-.928.173h-1.59v2.67h-1.21V62.2h2.709a3,3,0,0,1,.92.139,2.266,2.266,0,0,1,.752.413,1.848,1.848,0,0,1,.512.678,2.315,2.315,0,0,1,.181.95Zm-1.239-.031a.954.954,0,0,0-.319-.793,1.3,1.3,0,0,0-.839-.256h-1.47v2.091h1.509a1.086,1.086,0,0,0,.825-.311,1.02,1.02,0,0,0,.291-.731Zm4.578-2.2a2.807,2.807,0,0,1,1.08.2,2.427,2.427,0,0,1,.819.55,2.328,2.328,0,0,1,.52.835,3.012,3.012,0,0,1,.18,1.053v1.78a3.071,3.071,0,0,1-.185,1.1,2.285,2.285,0,0,1-.526.834,2.218,2.218,0,0,1-.819.529,2.931,2.931,0,0,1-1.069.186A2.788,2.788,0,0,1,3072.48,69a2.224,2.224,0,0,1-.809-.578,2.445,2.445,0,0,1-.479-.844,3.121,3.121,0,0,1-.161-1.01v-1.78a3.081,3.081,0,0,1,.161-1,2.446,2.446,0,0,1,.48-.844,2.252,2.252,0,0,1,.809-.58,2.8,2.8,0,0,1,1.14-.213Zm0,1.139a1.447,1.447,0,0,0-.608.12,1.237,1.237,0,0,0-.426.326,1.43,1.43,0,0,0-.255.462,1.757,1.757,0,0,0-.086.532V66.6a1.823,1.823,0,0,0,.086.554,1.459,1.459,0,0,0,.254.475,1.224,1.224,0,0,0,.427.334,1.373,1.373,0,0,0,.608.125,1.394,1.394,0,0,0,.578-.114,1.214,1.214,0,0,0,.429-.315,1.4,1.4,0,0,0,.273-.469,1.8,1.8,0,0,0,.094-.59V64.73a1.645,1.645,0,0,0-.094-.56,1.338,1.338,0,0,0-.273-.454,1.232,1.232,0,0,0-.429-.31,1.412,1.412,0,0,0-.589-.116Zm4.076,5.868V62.2h1.207v2.909h.912a2.055,2.055,0,0,0,.339-.029,1.043,1.043,0,0,0,.355-.136,1.061,1.061,0,0,0,.32-.311,2.047,2.047,0,0,0,.255-.544l.6-1.868h1.181l-.631,2.03a2.762,2.762,0,0,1-.4.854,1.179,1.179,0,0,1-.587.452,1.264,1.264,0,0,1,.682.5,3.278,3.278,0,0,1,.389.87l.671,2.23h-1.262l-.57-1.93a2.3,2.3,0,0,0-.25-.554,1.164,1.164,0,0,0-.3-.33,1,1,0,0,0-.35-.156,1.916,1.916,0,0,0-.385-.038h-.96v3.008Zm8.713-7.007a2.813,2.813,0,0,1,1.081.2,2.4,2.4,0,0,1,.82.55,2.365,2.365,0,0,1,.521.835,3.053,3.053,0,0,1,.18,1.053v1.78a3.1,3.1,0,0,1-.186,1.1,2.345,2.345,0,0,1-.525.834,2.222,2.222,0,0,1-.82.529,2.923,2.923,0,0,1-1.07.186,2.784,2.784,0,0,1-1.138-.216,2.248,2.248,0,0,1-.809-.578,2.433,2.433,0,0,1-.483-.844,3.232,3.232,0,0,1-.158-1.01v-1.78a3.183,3.183,0,0,1,.158-1,2.436,2.436,0,0,1,.483-.844,2.273,2.273,0,0,1,.808-.58,2.8,2.8,0,0,1,1.129-.213Zm0,1.139a1.455,1.455,0,0,0-.608.12,1.26,1.26,0,0,0-.427.326,1.387,1.387,0,0,0-.254.462,1.72,1.72,0,0,0-.086.532V66.6a1.786,1.786,0,0,0,.086.554,1.432,1.432,0,0,0,.254.475,1.242,1.242,0,0,0,.427.334,1.525,1.525,0,0,0,1.183.011,1.2,1.2,0,0,0,.433-.315,1.434,1.434,0,0,0,.271-.469,1.835,1.835,0,0,0,.093-.59V64.73a1.675,1.675,0,0,0-.093-.56,1.362,1.362,0,0,0-.271-.454,1.217,1.217,0,0,0-.433-.31,1.4,1.4,0,0,0-.585-.116Zm9.272,5.868V65.03h-.03l-.37.889-.511,1.12-.54,1.138h-.968l-.4-.847-.661-1.461-.36-.849-.028.029v4.109H3090.6V62.2h1.128l.91,1.99c.192.42.378.837.554,1.251s.354.828.536,1.248h.04l.559-1.331.509-1.168.891-1.99h1.16v6.958Zm6.98,0V63.281h-2.678v5.877h-1.21V62.2h5.1v6.958Zm6.544-5.877H3107.1v1.936a14.321,14.321,0,0,1-.093,1.748,3.929,3.929,0,0,1-.344,1.234,1.812,1.812,0,0,1-.678.765,2.578,2.578,0,0,1-1.113.324c-.032-.167-.068-.332-.1-.494s-.075-.33-.116-.494a2.09,2.09,0,0,0,.624-.273,1.249,1.249,0,0,0,.413-.455,2.193,2.193,0,0,0,.219-.719,7.432,7.432,0,0,0,.064-1.065V62.2h4.449v6.958H3109.2Zm2.959,5.877V62.2h4.659v1.1h-3.451v1.82h2.94v1.059h-2.94v1.88h3.451v1.1Zm6.048,0V62.2h1.21v2.909h.91a2.047,2.047,0,0,0,.339-.029,1.022,1.022,0,0,0,.355-.136,1,1,0,0,0,.318-.311,1.961,1.961,0,0,0,.256-.544l.6-1.868h1.178l-.631,2.03a2.69,2.69,0,0,1-.4.854,1.183,1.183,0,0,1-.585.452,1.264,1.264,0,0,1,.68.5,3.261,3.261,0,0,1,.389.87l.668,2.23h-1.257l-.569-1.93a2.5,2.5,0,0,0-.25-.554,1.2,1.2,0,0,0-.306-.33,1,1,0,0,0-.351-.156,1.929,1.929,0,0,0-.384-.038h-.96v3.008Zm11.176-1.56a2.284,2.284,0,0,1-.894,1.189,2.692,2.692,0,0,1-1.546.43,2.975,2.975,0,0,1-1.139-.2,2.216,2.216,0,0,1-.8-.562,2.331,2.331,0,0,1-.476-.839,3.337,3.337,0,0,1-.16-1.044V64.79a3.156,3.156,0,0,1,.16-1,2.466,2.466,0,0,1,.477-.844,2.24,2.24,0,0,1,.8-.58,2.8,2.8,0,0,1,1.139-.215,2.586,2.586,0,0,1,1.546.445,2.394,2.394,0,0,1,.882,1.174l-1.137.45a1.348,1.348,0,0,0-.454-.664,1.314,1.314,0,0,0-.837-.256,1.375,1.375,0,0,0-.6.121,1.2,1.2,0,0,0-.424.325,1.366,1.366,0,0,0-.255.465,1.677,1.677,0,0,0-.083.53v1.848a1.813,1.813,0,0,0,.083.555,1.4,1.4,0,0,0,.255.474,1.258,1.258,0,0,0,.425.335,1.347,1.347,0,0,0,.6.125,1.3,1.3,0,0,0,.831-.265,1.4,1.4,0,0,0,.46-.7Z" fill="#fff"/>
  </g>
</svg>
